<?xml version="1.0" standalone="no"?>
<!DOCTYPE svg PUBLIC "-//W3C//DTD SVG 20010904//EN"
 "http://www.w3.org/TR/2001/REC-SVG-20010904/DTD/svg10.dtd">
<svg version="1.0" xmlns="http://www.w3.org/2000/svg"
 width="512.000000pt" height="512.000000pt" viewBox="0 0 512.000000 512.000000"
 preserveAspectRatio="xMidYMid meet">
<metadata>
Created by potrace 1.11, written by Peter Selinger 2001-2013
</metadata>
<g transform="translate(0.000000,512.000000) scale(0.100000,-0.100000)"
fill="#000000" stroke="none">
<path d="M3039 5116 c-2 -2 -31 -6 -64 -10 -33 -3 -71 -8 -85 -11 -14 -3 -37
-7 -52 -10 -120 -22 -302 -102 -403 -177 -229 -170 -356 -411 -410 -778 -9
-61 -19 -156 -17 -162 1 -5 -4 -8 -11 -8 -7 0 -45 -16 -85 -35 -65 -31 -129
-79 -171 -129 -9 -10 -22 -24 -28 -31 -7 -8 -13 -18 -13 -23 0 -6 -4 -12 -8
-14 -28 -12 -90 -195 -88 -261 1 -20 -3 -37 -7 -37 -5 0 -6 -4 -3 -8 3 -5 7
-30 10 -58 19 -161 83 -275 222 -394 49 -42 149 -83 255 -104 18 -4 29 -14 33
-32 12 -46 68 -156 112 -219 121 -173 260 -300 411 -375 82 -40 232 -86 308
-93 l40 -4 -1 -53 0 -53 -230 -79 c-126 -43 -236 -80 -244 -82 -27 -8 -134
-44 -175 -59 -59 -22 -145 -45 -185 -50 -50 -6 -124 -29 -132 -42 -4 -5 -8 -7
-8 -3 0 18 -103 -58 -151 -110 -91 -99 -137 -232 -125 -358 6 -61 33 -154 56
-191 13 -20 2 -39 -137 -259 -7 -10 -31 -49 -54 -86 -48 -79 -58 -88 -84 -78
-14 5 -25 27 -37 66 -57 201 -219 796 -216 799 2 1 21 14 43 27 110 70 181
191 200 343 7 55 6 192 -1 221 -13 53 -47 107 -81 126 -31 19 -33 23 -34 76 0
32 -2 80 -4 107 -2 28 -6 109 -10 180 -4 72 -9 153 -10 180 -2 28 -6 96 -10
152 -3 56 -7 121 -9 145 -2 24 -7 79 -11 123 -10 124 -49 185 -135 213 -39 13
-59 11 -112 -11 -76 -32 -110 -97 -110 -211 0 -76 12 -349 16 -373 2 -10 7
-58 10 -108 4 -49 9 -102 12 -117 4 -28 3 -28 -48 -28 -60 0 -129 -29 -152
-65 -10 -16 -22 -22 -35 -18 -34 9 -124 -25 -164 -61 -21 -19 -39 -37 -39 -40
0 -32 -13 -46 -42 -47 -82 -2 -128 -25 -166 -86 -25 -39 -28 -52 -24 -96 6
-61 37 -165 68 -222 26 -49 27 -51 70 -100 21 -25 40 -61 47 -90 28 -117 109
-220 211 -271 44 -22 69 -27 147 -30 52 -2 95 -5 96 -6 2 -2 20 -66 40 -143
20 -77 50 -192 67 -255 16 -63 31 -122 33 -130 2 -8 22 -86 45 -173 l42 -158
-38 -76 c-34 -67 -38 -83 -38 -147 1 -51 8 -85 24 -120 23 -51 120 -156 144
-156 7 0 27 -7 44 -15 43 -22 127 -22 195 -1 111 36 203 155 211 274 4 57 7
62 166 282 174 241 167 236 245 220 20 -4 30 -12 31 -25 3 -37 14 -120 24
-175 5 -30 12 -71 15 -90 9 -71 38 -212 65 -321 12 -46 28 -112 37 -147 l15
-62 838 0 838 0 12 53 c7 28 15 56 18 62 3 5 7 16 8 25 1 8 4 26 8 40 14 58
65 302 71 337 3 21 7 48 9 58 3 20 13 86 22 155 11 84 13 88 50 92 37 4 38 2
48 -62 3 -19 8 -46 10 -60 3 -14 12 -68 20 -120 9 -52 18 -106 21 -120 3 -13
7 -42 10 -65 3 -22 8 -47 10 -55 3 -8 7 -31 9 -50 3 -19 7 -44 10 -55 2 -11
12 -68 21 -127 l18 -108 168 0 169 0 -6 38 c-3 20 -7 48 -10 62 -3 14 -9 54
-15 90 -5 36 -11 76 -14 90 -8 46 -44 285 -50 325 -6 43 -33 214 -41 255 -25
132 -22 195 11 270 26 58 29 75 29 165 -1 79 -6 112 -23 157 -26 68 -82 152
-124 187 -16 13 -35 31 -42 38 -8 7 -18 13 -23 13 -6 0 -12 3 -14 8 -4 9 -95
51 -128 58 -14 3 -48 10 -77 14 -42 7 -798 255 -812 266 -2 2 -6 26 -7 54 l-4
49 38 6 c33 6 130 25 157 31 6 1 26 9 46 18 20 8 39 12 43 9 3 -4 6 -1 6 5 0
7 7 12 16 12 19 0 97 42 169 91 43 29 198 178 230 220 83 111 146 220 166 289
13 41 26 49 111 64 14 2 47 13 71 24 194 86 324 282 332 500 8 227 -134 452
-335 528 -25 9 -50 22 -56 28 -7 6 -15 40 -18 76 -12 133 -49 305 -87 410
-129 353 -405 574 -809 646 -82 14 -420 30 -431 20z"/>
</g>
</svg>
